<svg width="20" height="18" viewBox="0 0 20 18" fill="none" xmlns="http://www.w3.org/2000/svg">
<path opacity="0.8" d="M13.5958 9.63839C14.5179 8.94458 15.1911 7.99317 15.5214 6.91651C15.8518 5.83985 15.8231 4.69148 15.4392 3.63117C15.0553 2.57087 14.3353 1.65135 13.3795 1.00054C12.4236 0.349732 11.2794 0 10.1061 0C8.93268 0 7.78847 0.349732 6.83263 1.00054C5.87678 1.65135 5.15683 2.57087 4.77293 3.63117C4.38903 4.69148 4.36028 5.83985 4.69067 6.91651C5.02107 7.99317 5.69417 8.94458 6.61635 9.63839C5.03618 10.2438 3.65742 11.2479 2.62707 12.5436C1.59672 13.8394 0.953397 15.3783 0.765683 16.9961C0.752096 17.1143 0.762971 17.2338 0.797689 17.3479C0.832406 17.462 0.890285 17.5684 0.968022 17.6612C1.12502 17.8484 1.35337 17.9683 1.60284 17.9946C1.85231 18.0208 2.10246 17.9512 2.29826 17.8011C2.49407 17.651 2.61949 17.4326 2.64693 17.194C2.85347 15.4357 3.73023 13.8118 5.10968 12.6326C6.48913 11.4533 8.27457 10.8014 10.1249 10.8014C11.9752 10.8014 13.7606 11.4533 15.1401 12.6326C16.5195 13.8118 17.3963 15.4357 17.6028 17.194C17.6284 17.4151 17.7387 17.6192 17.9124 17.767C18.0861 17.9149 18.3109 17.9959 18.5434 17.9946H18.6469C18.8935 17.9674 19.1188 17.8482 19.2739 17.6629C19.4289 17.4776 19.5011 17.2411 19.4746 17.0051C19.286 15.3827 18.6393 13.8399 17.6036 12.5421C16.568 11.2443 15.1825 10.2406 13.5958 9.63839ZM10.1061 8.99976C9.36191 8.99976 8.63447 8.78874 8.01573 8.3934C7.39699 7.99805 6.91475 7.43613 6.62997 6.7787C6.3452 6.12126 6.27069 5.39784 6.41587 4.69991C6.56104 4.00198 6.91938 3.36089 7.44558 2.85771C7.97177 2.35453 8.64218 2.01187 9.37203 1.87304C10.1019 1.73421 10.8584 1.80546 11.5459 2.07778C12.2334 2.3501 12.821 2.81126 13.2345 3.40293C13.6479 3.99461 13.8685 4.69023 13.8685 5.40183C13.8685 6.35606 13.4721 7.27121 12.7665 7.94595C12.0609 8.62069 11.1039 8.99976 10.1061 8.99976Z" fill="#A0A0B1"/>
</svg>
