<svg width="19" height="20" viewBox="0 0 19 20" fill="none" xmlns="http://www.w3.org/2000/svg">
<path d="M13.8 12H5.48003C5.2042 12 4.93968 12.1054 4.74464 12.2929C4.5496 12.4804 4.44003 12.7348 4.44003 13C4.44003 13.2652 4.5496 13.5196 4.74464 13.7071C4.93968 13.8946 5.2042 14 5.48003 14H13.8C14.0759 14 14.3404 13.8946 14.5354 13.7071C14.7305 13.5196 14.84 13.2652 14.84 13C14.84 12.7348 14.7305 12.4804 14.5354 12.2929C14.3404 12.1054 14.0759 12 13.8 12ZM13.8 8H7.56003C7.2842 8 7.01968 8.10536 6.82464 8.29289C6.6296 8.48043 6.52003 8.73478 6.52003 9C6.52003 9.26522 6.6296 9.51957 6.82464 9.70711C7.01968 9.89464 7.2842 10 7.56003 10H13.8C14.0759 10 14.3404 9.89464 14.5354 9.70711C14.7305 9.51957 14.84 9.26522 14.84 9C14.84 8.73478 14.7305 8.48043 14.5354 8.29289C14.3404 8.10536 14.0759 8 13.8 8ZM17.96 2H14.84V1C14.84 0.734784 14.7305 0.48043 14.5354 0.292893C14.3404 0.105357 14.0759 0 13.8 0C13.5242 0 13.2597 0.105357 13.0646 0.292893C12.8696 0.48043 12.76 0.734784 12.76 1V2H10.68V1C10.68 0.734784 10.5705 0.48043 10.3754 0.292893C10.1804 0.105357 9.91585 0 9.64003 0C9.3642 0 9.09968 0.105357 8.90464 0.292893C8.7096 0.48043 8.60003 0.734784 8.60003 1V2H6.52003V1C6.52003 0.734784 6.41046 0.48043 6.21542 0.292893C6.02038 0.105357 5.75585 0 5.48003 0C5.2042 0 4.93968 0.105357 4.74464 0.292893C4.5496 0.48043 4.44003 0.734784 4.44003 1V2H1.32003C1.0442 2 0.779676 2.10536 0.584638 2.29289C0.3896 2.48043 0.280029 2.73478 0.280029 3V17C0.280029 17.7956 0.608743 18.5587 1.19386 19.1213C1.77897 19.6839 2.57255 20 3.40003 20H15.88C16.7075 20 17.5011 19.6839 18.0862 19.1213C18.6713 18.5587 19 17.7956 19 17V3C19 2.73478 18.8905 2.48043 18.6954 2.29289C18.5004 2.10536 18.2359 2 17.96 2ZM16.92 17C16.92 17.2652 16.8105 17.5196 16.6154 17.7071C16.4204 17.8946 16.1559 18 15.88 18H3.40003C3.1242 18 2.85968 17.8946 2.66464 17.7071C2.4696 17.5196 2.36003 17.2652 2.36003 17V4H4.44003V5C4.44003 5.26522 4.5496 5.51957 4.74464 5.70711C4.93968 5.89464 5.2042 6 5.48003 6C5.75585 6 6.02038 5.89464 6.21542 5.70711C6.41046 5.51957 6.52003 5.26522 6.52003 5V4H8.60003V5C8.60003 5.26522 8.7096 5.51957 8.90464 5.70711C9.09968 5.89464 9.3642 6 9.64003 6C9.91585 6 10.1804 5.89464 10.3754 5.70711C10.5705 5.51957 10.68 5.26522 10.68 5V4H12.76V5C12.76 5.26522 12.8696 5.51957 13.0646 5.70711C13.2597 5.89464 13.5242 6 13.8 6C14.0759 6 14.3404 5.89464 14.5354 5.70711C14.7305 5.51957 14.84 5.26522 14.84 5V4H16.92V17Z" fill="#A0A0B1"/>
</svg>
