<svg width="20" height="21" viewBox="0 0 20 21" fill="none" xmlns="http://www.w3.org/2000/svg">
<path opacity="0.8" d="M18.2399 7.00001L11.9999 1.74001C11.4279 1.24805 10.6874 0.976074 9.91991 0.976074C9.15246 0.976074 8.41194 1.24805 7.83991 1.74001L1.59991 7.00001C1.26958 7.28408 1.00597 7.63256 0.826644 8.02225C0.647319 8.41194 0.55639 8.83389 0.559913 9.26001V18C0.559913 18.7957 0.888626 19.5587 1.47374 20.1213C2.05885 20.6839 2.85244 21 3.67991 21H16.1599C16.9874 21 17.781 20.6839 18.3661 20.1213C18.9512 19.5587 19.2799 18.7957 19.2799 18V9.25001C19.282 8.82557 19.1903 8.40555 19.011 8.01769C18.8318 7.62983 18.5689 7.28296 18.2399 7.00001ZM11.9999 19H7.83991V14C7.83991 13.7348 7.94948 13.4804 8.14452 13.2929C8.33956 13.1054 8.60409 13 8.87991 13H10.9599C11.2357 13 11.5003 13.1054 11.6953 13.2929C11.8903 13.4804 11.9999 13.7348 11.9999 14V19ZM17.1999 18C17.1999 18.2652 17.0903 18.5196 16.8953 18.7071C16.7003 18.8946 16.4357 19 16.1599 19H14.0799V14C14.0799 13.2044 13.7512 12.4413 13.1661 11.8787C12.581 11.3161 11.7874 11 10.9599 11H8.87991C8.05244 11 7.25885 11.3161 6.67374 11.8787C6.08863 12.4413 5.75991 13.2044 5.75991 14V19H3.67991C3.40409 19 3.13956 18.8946 2.94452 18.7071C2.74948 18.5196 2.63991 18.2652 2.63991 18V9.25001C2.6401 9.10802 2.67173 8.9677 2.7327 8.83839C2.79367 8.70907 2.88258 8.59372 2.99351 8.50001L9.23351 3.25001C9.4233 3.08969 9.66729 3.00127 9.91991 3.00127C10.1725 3.00127 10.4165 3.08969 10.6063 3.25001L16.8463 8.50001C16.9572 8.59372 17.0462 8.70907 17.1071 8.83839C17.1681 8.9677 17.1997 9.10802 17.1999 9.25001V18Z" fill="#A0A0B1"/>
</svg>
